<svg xmlns="http://www.w3.org/2000/svg" width="36" height="36" fill="none"><path fill="gray" fill-opacity=".3" d="M26 32a2 2 0 1 1 0 4 2 2 0 0 1 0-4ZM34 32a2 2 0 1 1 0 4 2 2 0 0 1 0-4ZM10 24a2 2 0 1 1 0 4 2 2 0 0 1 0-4ZM18 24a2 2 0 1 1 0 4 2 2 0 0 1 0-4ZM26 24a2 2 0 1 1 0 4 2 2 0 0 1 0-4ZM34 24a2 2 0 1 1 0 4 2 2 0 0 1 0-4ZM10 16a2 2 0 1 1 0 4 2 2 0 0 1 0-4ZM18 16a2 2 0 1 1 0 4 2 2 0 0 1 0-4ZM26 16a2 2 0 1 1 0 4 2 2 0 0 1 0-4ZM34 16a2 2 0 1 1 0 4 2 2 0 0 1 0-4ZM10 8a2 2 0 1 1 0 4 2 2 0 0 1 0-4ZM2 8a2 2 0 1 1 0 4 2 2 0 0 1 0-4ZM18 8a2 2 0 1 1 0 4 2 2 0 0 1 0-4ZM26 8a2 2 0 1 1 0 4 2 2 0 0 1 0-4ZM34 8a2 2 0 1 1 0 4 2 2 0 0 1 0-4ZM10 0a2 2 0 1 1 0 4 2 2 0 0 1 0-4ZM2 0a2 2 0 1 1 0 4 2 2 0 0 1 0-4ZM18 0a2 2 0 1 1 0 4 2 2 0 0 1 0-4ZM26 0a2 2 0 1 1 0 4 2 2 0 0 1 0-4ZM34 0a2 2 0 1 1 0 4 2 2 0 0 1 0-4Z"/></svg>