<svg xmlns="http://www.w3.org/2000/svg" width="36" height="36" fill="none"><path fill="gray" fill-opacity=".3" d="M32 10a2 2 0 1 1 4 0 2 2 0 0 1-4 0ZM32 2a2 2 0 1 1 4 0 2 2 0 0 1-4 0ZM24 26a2 2 0 1 1 4 0 2 2 0 0 1-4 0ZM24 18a2 2 0 1 1 4 0 2 2 0 0 1-4 0ZM24 10a2 2 0 1 1 4 0 2 2 0 0 1-4 0ZM24 2a2 2 0 1 1 4 0 2 2 0 0 1-4 0ZM16 26a2 2 0 1 1 4 0 2 2 0 0 1-4 0ZM16 18a2 2 0 1 1 4 0 2 2 0 0 1-4 0ZM16 10a2 2 0 1 1 4 0 2 2 0 0 1-4 0ZM16 2a2 2 0 1 1 4 0 2 2 0 0 1-4 0ZM8 26a2 2 0 1 1 4 0 2 2 0 0 1-4 0ZM8 34a2 2 0 1 1 4 0 2 2 0 0 1-4 0ZM8 18a2 2 0 1 1 4 0 2 2 0 0 1-4 0ZM8 10a2 2 0 1 1 4 0 2 2 0 0 1-4 0ZM8 2a2 2 0 1 1 4 0 2 2 0 0 1-4 0ZM0 26a2 2 0 1 1 4 0 2 2 0 0 1-4 0ZM0 34a2 2 0 1 1 4 0 2 2 0 0 1-4 0ZM0 18a2 2 0 1 1 4 0 2 2 0 0 1-4 0ZM0 10a2 2 0 1 1 4 0 2 2 0 0 1-4 0ZM0 2a2 2 0 1 1 4 0 2 2 0 0 1-4 0Z"/></svg>