<svg xmlns="http://www.w3.org/2000/svg" width="36" height="36" fill="none"><path fill="gray" fill-opacity=".3" d="M10 4a2 2 0 1 1 0-4 2 2 0 0 1 0 4ZM2 4a2 2 0 1 1 0-4 2 2 0 0 1 0 4ZM26 12a2 2 0 1 1 0-4 2 2 0 0 1 0 4ZM18 12a2 2 0 1 1 0-4 2 2 0 0 1 0 4ZM10 12a2 2 0 1 1 0-4 2 2 0 0 1 0 4ZM2 12a2 2 0 1 1 0-4 2 2 0 0 1 0 4ZM26 20a2 2 0 1 1 0-4 2 2 0 0 1 0 4ZM18 20a2 2 0 1 1 0-4 2 2 0 0 1 0 4ZM10 20a2 2 0 1 1 0-4 2 2 0 0 1 0 4ZM2 20a2 2 0 1 1 0-4 2 2 0 0 1 0 4ZM26 28a2 2 0 1 1 0-4 2 2 0 0 1 0 4ZM34 28a2 2 0 1 1 0-4 2 2 0 0 1 0 4ZM18 28a2 2 0 1 1 0-4 2 2 0 0 1 0 4ZM10 28a2 2 0 1 1 0-4 2 2 0 0 1 0 4ZM2 28a2 2 0 1 1 0-4 2 2 0 0 1 0 4ZM26 36a2 2 0 1 1 0-4 2 2 0 0 1 0 4ZM34 36a2 2 0 1 1 0-4 2 2 0 0 1 0 4ZM18 36a2 2 0 1 1 0-4 2 2 0 0 1 0 4ZM10 36a2 2 0 1 1 0-4 2 2 0 0 1 0 4ZM2 36a2 2 0 1 1 0-4 2 2 0 0 1 0 4Z"/></svg>